<svg xmlns="http://www.w3.org/2000/svg" width="50" height="50" viewBox="0 0 50 50">
  <path id="github-outline_211903" d="M57,34.086a22.539,22.539,0,0,1,9.018,1.864,22.966,22.966,0,0,1,7.377,5.1,23.919,23.919,0,0,1,4.989,7.578,24.44,24.44,0,0,1-2.656,23.393,23.674,23.674,0,0,1-5.022,5.156,23.069,23.069,0,0,1-5.714,3.147V79.6c.011-1.328.022-3.326.022-5.625a9.956,9.956,0,0,0-.547-3.4c4.152-.926,10.268-3.761,10.268-14a11.741,11.741,0,0,0-2.366-7.266,11.777,11.777,0,0,0-.569-7.031l-.3-.792-.8-.268a3.633,3.633,0,0,0-1.116-.145c-1.283,0-3.449.435-6.641,2.522a24.7,24.7,0,0,0-5.926-.737h-.022a24.627,24.627,0,0,0-5.926.737c-3.192-2.087-5.357-2.533-6.641-2.533a3.519,3.519,0,0,0-1.116.156l-.8.268-.3.792a11.782,11.782,0,0,0-.569,7.031,11.787,11.787,0,0,0-2.366,7.266c0,5.536,1.786,8.917,4.085,10.993a6.214,6.214,0,0,0-3.482-1.451h-.145c-1.462,0-2.489.6-2.812,1.641-.525,1.652,1.094,2.79,1.629,3.17l.056.067.167.067A5.5,5.5,0,0,1,40.65,73.8a6.738,6.738,0,0,0,1.518,2.478,24.014,24.014,0,0,1-8.382-18.337,24.224,24.224,0,0,1,1.83-9.3A23.61,23.61,0,0,1,40.6,41.061a23.088,23.088,0,0,1,7.377-5.1A22.55,22.55,0,0,1,57,34.086M43.685,67.869A13.666,13.666,0,0,0,49.522,70.6a7.758,7.758,0,0,0-.234.77,4.712,4.712,0,0,1-1.306.2,3.165,3.165,0,0,1-2.857-1.886,7.01,7.01,0,0,0-1.44-1.819m.413,9.888a8.608,8.608,0,0,0,4.152.982c.246,0,.491-.011.748-.022,0,.313,0,.614.011.882s0,.513.011.725A22.462,22.462,0,0,1,44.1,77.758M57,32.3c-13.806,0-25,11.484-25,25.636A25.587,25.587,0,0,0,49.1,82.255a1.96,1.96,0,0,0,.424.045,1.21,1.21,0,0,0,1.283-1.272c0-.614-.022-2.221-.033-4.364a11.429,11.429,0,0,1-2.522.3c-4.81,0-5.9-3.739-5.9-3.739-1.138-2.958-2.779-3.772-2.779-3.772-2.176-1.529-.011-1.585.156-1.585h.011a5.375,5.375,0,0,1,3.828,2.667,4.922,4.922,0,0,0,4.42,2.813,7.026,7.026,0,0,0,2.857-.67,5.538,5.538,0,0,1,1.585-3.426c-5.547-.647-11.384-2.846-11.384-12.667a10.034,10.034,0,0,1,2.567-6.875,9.437,9.437,0,0,1,.246-6.786,2.081,2.081,0,0,1,.558-.056c.9,0,2.946.346,6.317,2.69a23.238,23.238,0,0,1,12.522,0c3.371-2.344,5.413-2.69,6.317-2.69a2.081,2.081,0,0,1,.558.056,9.437,9.437,0,0,1,.246,6.786,10.075,10.075,0,0,1,2.567,6.875c0,9.844-5.848,12.009-11.417,12.645a6.216,6.216,0,0,1,1.7,4.743c0,3.426-.033,6.194-.033,7.031a1.2,1.2,0,0,0,1.272,1.283,2.16,2.16,0,0,0,.446-.045A25.558,25.558,0,0,0,82,57.936C82,43.784,70.806,32.3,57,32.3Z" transform="translate(-32 -32.3)" fill="#fff"/>
</svg>
